ffmpeg started on 2025-05-28 at 11:38:50
Report written to "D:\Convert\FFMetrics\reports\psnr_report-6.txt"
Log level: 32
Command line:
ffmpeg -hide_banner -nostdin -i "G:\\\xc0\xed\xe8\xec\xe5\\\xce\xed\xe3\xee\xe8\xed\xe3\xe8\\!_36_\xce\xf1\xe5\xed\xfc_2024\\JamClub\\SAO\\\xc0\xeb\xfc\xf2\xe5\xf0\xed\xe0\xf2\xe8\xe2\xed\xe0\xff \xab\xcf\xf0\xe8\xe7\xf0\xe0\xf7\xed\xe0\xff \xef\xf3\xeb\xff\xbb\\\xd2\xc2-2\\JamClub_Sword_Art_Online_Alternative_Gun_Gale_Online_II_08_1080p_HEVC.mkv" -i "G:\\\xc0\xed\xe8\xec\xe5\\\xce\xed\xe3\xee\xe8\xed\xe3\xe8\\!_36_\xce\xf1\xe5\xed\xfc_2024\\JamClub\\SAO\\\xc0\xeb\xfc\xf2\xe5\xf0\xed\xe0\xf2\xe8\xe2\xed\xe0\xff \xab\xcf\xf0\xe8\xe7\xf0\xe0\xf7\xed\xe0\xff \xef\xf3\xeb\xff\xbb\\\xd2\xc2-2\\JamClub_Sword_Art_Online_Alternative_Gun_Gale_Online_II_08_1080p.mp4" -lavfi "[0:v]settb=AVTB,setpts=PTS-STARTPTS,format=pix_fmts=yuv420p10,fps=24000/1001,scale=1920:1080:flags=bicubic[main];[1:v]settb=AVTB,setpts=PTS-STARTPTS,format=pix_fmts=yuv420p,fps=24000/1001,scale=1920:1080:flags=bicubic[ref];[main][ref]psnr=eof_action=endall:stats_file='D\\:/Convert/FFMetrics/logs/psnr_logfile-6.txt'" -f null -
Input #0, matroska,webm, from 'G:\Аниме\Онгоинги\!_36_Осень_2024\JamClub\SAO\Альтернативная «Призрачная пуля»\ТВ-2\JamClub_Sword_Art_Online_Alternative_Gun_Gale_Online_II_08_1080p_HEVC.mkv':
  Metadata:
    COMPATIBLE_BRANDS: isomiso2avc1mp41
    MAJOR_BRAND     : isom
    MINOR_VERSION   : 512
    ENCODER         : Lavf61.7.100
  Duration: 00:24:02.31, start: -0.001000, bitrate: 1774 kb/s
  Stream #0:0: Video: hevc (Main 10), yuv420p10le(tv, bt709, progressive), 1920x1080 [SAR 1:1 DAR 16:9], 23.98 fps, 23.98 tbr, 1k tbn (default)
      Metadata:
        HANDLER_NAME    : VideoHandler
        VENDOR_ID       : [0][0][0][0]
        ENCODER         : Lavc61.19.100 libx265
        BPS             : 1576695
        DURATION        : 00:24:02.232708333
        NUMBER_OF_FRAMES: 34579
        NUMBER_OF_BYTES : 284245167
        _STATISTICS_WRITING_APP: mkvpropedit v66.0.0 ('Josie') 64-bit
        _STATISTICS_WRITING_DATE_UTC: 2025-05-27 16:34:15
        _STATISTICS_TAGS: BPS DURATION NUMBER_OF_FRAMES NUMBER_OF_BYTES
  Stream #0:1(eng): Audio: aac (LC), 48000 Hz, stereo, fltp (default)
      Metadata:
        HANDLER_NAME    : SoundHandler
        VENDOR_ID       : [0][0][0][0]
        ENCODER         : Lavc61.19.100 aac
        BPS             : 193377
        DURATION        : 00:24:02.264000000
        NUMBER_OF_FRAMES: 67607
        NUMBER_OF_BYTES : 34862701
        _STATISTICS_WRITING_APP: mkvpropedit v66.0.0 ('Josie') 64-bit
        _STATISTICS_WRITING_DATE_UTC: 2025-05-27 16:34:15
        _STATISTICS_TAGS: BPS DURATION NUMBER_OF_FRAMES NUMBER_OF_BYTES
Input #1, mov,mp4,m4a,3gp,3g2,mj2, from 'G:\Аниме\Онгоинги\!_36_Осень_2024\JamClub\SAO\Альтернативная «Призрачная пуля»\ТВ-2\JamClub_Sword_Art_Online_Alternative_Gun_Gale_Online_II_08_1080p.mp4':
  Metadata:
    major_brand     : isom
    minor_version   : 512
    compatible_brands: isomiso2avc1mp41
    encoder         : Lavf60.16.100
  Duration: 00:24:02.28, start: 0.000000, bitrate: 5107 kb/s
  Stream #1:0[0x1](und): Video: h264 (High) (avc1 / 0x31637661), yuv420p(progressive), 1920x1080 [SAR 1:1 DAR 16:9], 4909 kb/s, 23.98 fps, 23.98 tbr, 90k tbn (default)
      Metadata:
        handler_name    : VideoHandler
        vendor_id       : [0][0][0][0]
  Stream #1:1[0x2](eng): Audio: aac (LC) (mp4a / 0x6134706D), 48000 Hz, stereo, fltp, 191 kb/s (default)
      Metadata:
        handler_name    : SoundHandler
        vendor_id       : [0][0][0][0]
Stream mapping:
  Stream #0:0 (hevc) -> settb:default
  Stream #1:0 (h264) -> settb:default
  psnr:default -> Stream #0:0 (wrapped_avframe)
  Stream #0:1 -> #0:1 (aac (native) -> pcm_s16le (native))
Output #0, null, to 'pipe:':
  Metadata:
    COMPATIBLE_BRANDS: isomiso2avc1mp41
    MAJOR_BRAND     : isom
    MINOR_VERSION   : 512
    encoder         : Lavf61.7.100
  Stream #0:0: Video: wrapped_avframe, yuv420p10le(tv, bt709, progressive), 1920x1080 [SAR 1:1 DAR 16:9], q=2-31, 200 kb/s, 23.98 fps, 23.98 tbn
      Metadata:
        encoder         : Lavc61.19.100 wrapped_avframe
  Stream #0:1(eng): Audio: pcm_s16le, 48000 Hz, stereo, s16, 1536 kb/s (default)
      Metadata:
        HANDLER_NAME    : SoundHandler
        VENDOR_ID       : [0][0][0][0]
        _STATISTICS_TAGS: BPS DURATION NUMBER_OF_FRAMES NUMBER_OF_BYTES
        BPS             : 193377
        DURATION        : 00:24:02.264000000
        NUMBER_OF_FRAMES: 67607
        NUMBER_OF_BYTES : 34862701
        _STATISTICS_WRITING_APP: mkvpropedit v66.0.0 ('Josie') 64-bit
        _STATISTICS_WRITING_DATE_UTC: 2025-05-27 16:34:15
        encoder         : Lavc61.19.100 pcm_s16le
frame=  112 fps=0.0 q=-0.0 size=N/A time=00:00:04.67 bitrate=N/A speed=9.09x    frame=  269 fps=262 q=-0.0 size=N/A time=00:00:11.21 bitrate=N/A speed=10.9x    frame=  462 fps=298 q=-0.0 size=N/A time=00:00:19.26 bitrate=N/A speed=12.4x    frame=  697 fps=338 q=-0.0 size=N/A time=00:00:29.07 bitrate=N/A speed=14.1x    frame=  910 fps=352 q=-0.0 size=N/A time=00:00:37.95 bitrate=N/A speed=14.7x    frame= 1138 fps=368 q=-0.0 size=N/A time=00:00:47.46 bitrate=N/A speed=15.3x    frame= 1393 fps=386 q=-0.0 size=N/A time=00:00:58.09 bitrate=N/A speed=16.1x    frame= 1645 fps=398 q=-0.0 size=N/A time=00:01:08.61 bitrate=N/A speed=16.6x    frame= 1894 fps=408 q=-0.0 size=N/A time=00:01:18.99 bitrate=N/A speed=  17x    frame= 2106 fps=408 q=-0.0 size=N/A time=00:01:27.83 bitrate=N/A speed=  17x    frame= 2322 fps=409 q=-0.0 size=N/A time=00:01:36.84 bitrate=N/A speed=17.1x    frame= 2529 fps=409 q=-0.0 size=N/A time=00:01:45.48 bitrate=N/A speed=  17x    frame= 2754 fps=411 q=-0.0 size=N/A time=00:01:54.86 bitrate=N/A speed=17.1x    frame= 2947 fps=408 q=-0.0 size=N/A time=00:02:02.91 bitrate=N/A speed=  17x    frame= 3166 fps=410 q=-0.0 size=N/A time=00:02:12.04 bitrate=N/A speed=17.1x    frame= 3375 fps=409 q=-0.0 size=N/A time=00:02:20.76 bitrate=N/A speed=17.1x    frame= 3566 fps=406 q=-0.0 size=N/A time=00:02:28.73 bitrate=N/A speed=  17x    frame= 3729 fps=402 q=-0.0 size=N/A time=00:02:35.53 bitrate=N/A speed=16.8x    frame= 3910 fps=399 q=-0.0 size=N/A time=00:02:43.07 bitrate=N/A speed=16.6x    frame= 4045 fps=392 q=-0.0 size=N/A time=00:02:48.71 bitrate=N/A speed=16.4x    frame= 4215 fps=389 q=-0.0 size=N/A time=00:02:55.80 bitrate=N/A speed=16.2x    frame= 4395 fps=387 q=-0.0 size=N/A time=00:03:03.30 bitrate=N/A speed=16.2x    frame= 4549 fps=383 q=-0.0 size=N/A time=00:03:09.73 bitrate=N/A speed=  16x    frame= 4724 fps=382 q=-0.0 size=N/A time=00:03:17.03 bitrate=N/A speed=15.9x    frame= 4993 fps=387 q=-0.0 size=N/A time=00:03:28.24 bitrate=N/A speed=16.1x    frame= 5251 fps=391 q=-0.0 size=N/A time=00:03:39.01 bitrate=N/A speed=16.3x    frame= 5506 fps=395 q=-0.0 size=N/A time=00:03:49.64 bitrate=N/A speed=16.5x    frame= 5749 fps=398 q=-0.0 size=N/A time=00:03:59.78 bitrate=N/A speed=16.6x    frame= 5988 fps=400 q=-0.0 size=N/A time=00:04:09.74 bitrate=N/A speed=16.7x    frame= 6240 fps=403 q=-0.0 size=N/A time=00:04:20.26 bitrate=N/A speed=16.8x    frame= 6494 fps=406 q=-0.0 size=N/A time=00:04:30.85 bitrate=N/A speed=16.9x    frame= 6758 fps=409 q=-0.0 size=N/A time=00:04:41.86 bitrate=N/A speed=17.1x    frame= 7012 fps=412 q=-0.0 size=N/A time=00:04:52.45 bitrate=N/A speed=17.2x    frame= 7242 fps=413 q=-0.0 size=N/A time=00:05:02.05 bitrate=N/A speed=17.2x    frame= 7502 fps=415 q=-0.0 size=N/A time=00:05:12.89 bitrate=N/A speed=17.3x    frame= 7768 fps=418 q=-0.0 size=N/A time=00:05:23.99 bitrate=N/A speed=17.4x    frame= 8017 fps=420 q=-0.0 size=N/A time=00:05:34.37 bitrate=N/A speed=17.5x    frame= 8240 fps=420 q=-0.0 size=N/A time=00:05:43.67 bitrate=N/A speed=17.5x    frame= 8457 fps=420 q=-0.0 size=N/A time=00:05:52.72 bitrate=N/A speed=17.5x    frame= 8686 fps=420 q=-0.0 size=N/A time=00:06:02.27 bitrate=N/A speed=17.5x    frame= 8925 fps=422 q=-0.0 size=N/A time=00:06:12.24 bitrate=N/A speed=17.6x    frame= 9168 fps=423 q=-0.0 size=N/A time=00:06:22.38 bitrate=N/A speed=17.6x    frame= 9422 fps=424 q=-0.0 size=N/A time=00:06:32.97 bitrate=N/A speed=17.7x    frame= 9639 fps=424 q=-0.0 size=N/A time=00:06:42.02 bitrate=N/A speed=17.7x    frame= 9878 fps=425 q=-0.0 size=N/A time=00:06:51.99 bitrate=N/A speed=17.7x    frame=10109 fps=426 q=-0.0 size=N/A time=00:07:01.62 bitrate=N/A speed=17.8x    frame=10307 fps=425 q=-0.0 size=N/A time=00:07:09.88 bitrate=N/A speed=17.7x    frame=10512 fps=424 q=-0.0 size=N/A time=00:07:18.43 bitrate=N/A speed=17.7x    frame=10699 fps=423 q=-0.0 size=N/A time=00:07:26.23 bitrate=N/A speed=17.6x    frame=10908 fps=422 q=-0.0 size=N/A time=00:07:34.95 bitrate=N/A speed=17.6x    frame=11090 fps=421 q=-0.0 size=N/A time=00:07:42.54 bitrate=N/A speed=17.6x    frame=11301 fps=421 q=-0.0 size=N/A time=00:07:51.34 bitrate=N/A speed=17.6x    frame=11524 fps=421 q=-0.0 size=N/A time=00:08:00.64 bitrate=N/A speed=17.6x    frame=11732 fps=421 q=-0.0 size=N/A time=00:08:09.32 bitrate=N/A speed=17.5x    frame=11925 fps=420 q=-0.0 size=N/A time=00:08:17.37 bitrate=N/A speed=17.5x    frame=12167 fps=421 q=-0.0 size=N/A time=00:08:27.46 bitrate=N/A speed=17.5x    frame=12386 fps=421 q=-0.0 size=N/A time=00:08:36.59 bitrate=N/A speed=17.5x    frame=12625 fps=421 q=-0.0 size=N/A time=00:08:46.56 bitrate=N/A speed=17.6x    frame=12877 fps=423 q=-0.0 size=N/A time=00:08:57.07 bitrate=N/A speed=17.6x    frame=13080 fps=422 q=-0.0 size=N/A time=00:09:05.54 bitrate=N/A speed=17.6x    frame=13234 fps=420 q=-0.0 size=N/A time=00:09:11.96 bitrate=N/A speed=17.5x    frame=13411 fps=419 q=-0.0 size=N/A time=00:09:19.35 bitrate=N/A speed=17.5x    frame=13621 fps=419 q=-0.0 size=N/A time=00:09:28.10 bitrate=N/A speed=17.5x    frame=13852 fps=419 q=-0.0 size=N/A time=00:09:37.74 bitrate=N/A speed=17.5x    frame=14072 fps=419 q=-0.0 size=N/A time=00:09:46.91 bitrate=N/A speed=17.5x    frame=14312 fps=420 q=-0.0 size=N/A time=00:09:56.92 bitrate=N/A speed=17.5x    frame=14558 fps=421 q=-0.0 size=N/A time=00:10:07.18 bitrate=N/A speed=17.6x    frame=14794 fps=421 q=-0.0 size=N/A time=00:10:17.03 bitrate=N/A speed=17.6x    frame=15010 fps=421 q=-0.0 size=N/A time=00:10:26.04 bitrate=N/A speed=17.6x    frame=15225 fps=421 q=-0.0 size=N/A time=00:10:35.00 bitrate=N/A speed=17.6x    frame=15427 fps=421 q=-0.0 size=N/A time=00:10:43.43 bitrate=N/A speed=17.5x    frame=15624 fps=420 q=-0.0 size=N/A time=00:10:51.65 bitrate=N/A speed=17.5x    frame=15870 fps=421 q=-0.0 size=N/A time=00:11:01.91 bitrate=N/A speed=17.6x    frame=16113 fps=422 q=-0.0 size=N/A time=00:11:12.04 bitrate=N/A speed=17.6x    frame=16301 fps=421 q=-0.0 size=N/A time=00:11:19.88 bitrate=N/A speed=17.6x    frame=16502 fps=421 q=-0.0 size=N/A time=00:11:28.27 bitrate=N/A speed=17.5x    frame=16681 fps=420 q=-0.0 size=N/A time=00:11:35.73 bitrate=N/A speed=17.5x    frame=16853 fps=418 q=-0.0 size=N/A time=00:11:42.91 bitrate=N/A speed=17.5x    frame=17098 fps=419 q=-0.0 size=N/A time=00:11:53.12 bitrate=N/A speed=17.5x    frame=17309 fps=419 q=-0.0 size=N/A time=00:12:01.92 bitrate=N/A speed=17.5x    frame=17504 fps=419 q=-0.0 size=N/A time=00:12:10.06 bitrate=N/A speed=17.5x    frame=17667 fps=417 q=-0.0 size=N/A time=00:12:16.86 bitrate=N/A speed=17.4x    frame=17899 fps=418 q=-0.0 size=N/A time=00:12:26.53 bitrate=N/A speed=17.4x    frame=18096 fps=417 q=-0.0 size=N/A time=00:12:34.75 bitrate=N/A speed=17.4x    frame=18299 fps=417 q=-0.0 size=N/A time=00:12:43.22 bitrate=N/A speed=17.4x    frame=18505 fps=417 q=-0.0 size=N/A time=00:12:51.81 bitrate=N/A speed=17.4x    frame=18718 fps=417 q=-0.0 size=N/A time=00:13:00.69 bitrate=N/A speed=17.4x    frame=18885 fps=416 q=-0.0 size=N/A time=00:13:07.66 bitrate=N/A speed=17.3x    frame=19087 fps=415 q=-0.0 size=N/A time=00:13:16.08 bitrate=N/A speed=17.3x    frame=19268 fps=415 q=-0.0 size=N/A time=00:13:23.67 bitrate=N/A speed=17.3x    frame=19503 fps=415 q=-0.0 size=N/A time=00:13:33.43 bitrate=N/A speed=17.3x    frame=19683 fps=415 q=-0.0 size=N/A time=00:13:40.94 bitrate=N/A speed=17.3x    frame=19862 fps=414 q=-0.0 size=N/A time=00:13:48.41 bitrate=N/A speed=17.3x    frame=20083 fps=414 q=-0.0 size=N/A time=00:13:57.62 bitrate=N/A speed=17.3x    frame=20268 fps=413 q=-0.0 size=N/A time=00:14:05.34 bitrate=N/A speed=17.2x    frame=20435 fps=412 q=-0.0 size=N/A time=00:14:12.30 bitrate=N/A speed=17.2x    frame=20641 fps=412 q=-0.0 size=N/A time=00:14:20.90 bitrate=N/A speed=17.2x    frame=20836 fps=412 q=-0.0 size=N/A time=00:14:29.03 bitrate=N/A speed=17.2x    frame=21064 fps=412 q=-0.0 size=N/A time=00:14:38.54 bitrate=N/A speed=17.2x    frame=21282 fps=412 q=-0.0 size=N/A time=00:14:47.63 bitrate=N/A speed=17.2x    frame=21473 fps=412 q=-0.0 size=N/A time=00:14:55.60 bitrate=N/A speed=17.2x    frame=21691 fps=412 q=-0.0 size=N/A time=00:15:04.69 bitrate=N/A speed=17.2x    frame=21887 fps=412 q=-0.0 size=N/A time=00:15:12.87 bitrate=N/A speed=17.2x    frame=22083 fps=411 q=-0.0 size=N/A time=00:15:21.04 bitrate=N/A speed=17.2x    frame=22311 fps=412 q=-0.0 size=N/A time=00:15:30.55 bitrate=N/A speed=17.2x    frame=22527 fps=412 q=-0.0 size=N/A time=00:15:39.56 bitrate=N/A speed=17.2x    frame=22754 fps=412 q=-0.0 size=N/A time=00:15:49.03 bitrate=N/A speed=17.2x    frame=22956 fps=412 q=-0.0 size=N/A time=00:15:57.45 bitrate=N/A speed=17.2x    frame=23124 fps=411 q=-0.0 size=N/A time=00:16:04.46 bitrate=N/A speed=17.1x    frame=23327 fps=411 q=-0.0 size=N/A time=00:16:12.93 bitrate=N/A speed=17.1x    frame=23525 fps=411 q=-0.0 size=N/A time=00:16:21.18 bitrate=N/A speed=17.1x    frame=23741 fps=411 q=-0.0 size=N/A time=00:16:30.19 bitrate=N/A speed=17.1x    frame=23967 fps=411 q=-0.0 size=N/A time=00:16:39.62 bitrate=N/A speed=17.1x    frame=24168 fps=411 q=-0.0 size=N/A time=00:16:48.00 bitrate=N/A speed=17.1x    frame=24384 fps=411 q=-0.0 size=N/A time=00:16:57.01 bitrate=N/A speed=17.1x    frame=24647 fps=412 q=-0.0 size=N/A time=00:17:07.98 bitrate=N/A speed=17.2x    frame=24904 fps=412 q=-0.0 size=N/A time=00:17:18.70 bitrate=N/A speed=17.2x    frame=25092 fps=412 q=-0.0 size=N/A time=00:17:26.54 bitrate=N/A speed=17.2x    frame=25300 fps=412 q=-0.0 size=N/A time=00:17:35.22 bitrate=N/A speed=17.2x    frame=25543 fps=413 q=-0.0 size=N/A time=00:17:45.35 bitrate=N/A speed=17.2x    frame=25733 fps=412 q=-0.0 size=N/A time=00:17:53.28 bitrate=N/A speed=17.2x    frame=25964 fps=412 q=-0.0 size=N/A time=00:18:02.91 bitrate=N/A speed=17.2x    frame=26206 fps=413 q=-0.0 size=N/A time=00:18:13.00 bitrate=N/A speed=17.2x    frame=26455 fps=413 q=-0.0 size=N/A time=00:18:23.39 bitrate=N/A speed=17.2x    frame=26678 fps=414 q=-0.0 size=N/A time=00:18:32.69 bitrate=N/A speed=17.2x    frame=26852 fps=413 q=-0.0 size=N/A time=00:18:39.95 bitrate=N/A speed=17.2x    frame=27071 fps=413 q=-0.0 size=N/A time=00:18:49.08 bitrate=N/A speed=17.2x    frame=27284 fps=413 q=-0.0 size=N/A time=00:18:57.97 bitrate=N/A speed=17.2x    frame=27509 fps=413 q=-0.0 size=N/A time=00:19:07.35 bitrate=N/A speed=17.2x    frame=27718 fps=413 q=-0.0 size=N/A time=00:19:16.07 bitrate=N/A speed=17.2x    frame=27974 fps=414 q=-0.0 size=N/A time=00:19:26.74 bitrate=N/A speed=17.3x    frame=28214 fps=414 q=-0.0 size=N/A time=00:19:36.75 bitrate=N/A speed=17.3x    frame=28466 fps=415 q=-0.0 size=N/A time=00:19:47.26 bitrate=N/A speed=17.3x    frame=28721 fps=415 q=-0.0 size=N/A time=00:19:57.90 bitrate=N/A speed=17.3x    frame=28964 fps=416 q=-0.0 size=N/A time=00:20:08.04 bitrate=N/A speed=17.3x    frame=29127 fps=415 q=-0.0 size=N/A time=00:20:14.83 bitrate=N/A speed=17.3x    frame=29308 fps=415 q=-0.0 size=N/A time=00:20:22.38 bitrate=N/A speed=17.3x    frame=29487 fps=414 q=-0.0 size=N/A time=00:20:29.85 bitrate=N/A speed=17.3x    frame=29711 fps=414 q=-0.0 size=N/A time=00:20:39.19 bitrate=N/A speed=17.3x    frame=29941 fps=414 q=-0.0 size=N/A time=00:20:48.78 bitrate=N/A speed=17.3x    frame=30151 fps=414 q=-0.0 size=N/A time=00:20:57.54 bitrate=N/A speed=17.3x    frame=30390 fps=415 q=-0.0 size=N/A time=00:21:07.51 bitrate=N/A speed=17.3x    frame=30610 fps=415 q=-0.0 size=N/A time=00:21:16.69 bitrate=N/A speed=17.3x    frame=30816 fps=415 q=-0.0 size=N/A time=00:21:25.28 bitrate=N/A speed=17.3x    frame=31028 fps=415 q=-0.0 size=N/A time=00:21:34.12 bitrate=N/A speed=17.3x    frame=31179 fps=414 q=-0.0 size=N/A time=00:21:40.42 bitrate=N/A speed=17.3x    frame=31388 fps=414 q=-0.0 size=N/A time=00:21:49.14 bitrate=N/A speed=17.3x    frame=31540 fps=413 q=-0.0 size=N/A time=00:21:55.48 bitrate=N/A speed=17.2x    frame=31733 fps=413 q=-0.0 size=N/A time=00:22:03.53 bitrate=N/A speed=17.2x    frame=31956 fps=413 q=-0.0 size=N/A time=00:22:12.83 bitrate=N/A speed=17.2x    frame=32119 fps=412 q=-0.0 size=N/A time=00:22:19.62 bitrate=N/A speed=17.2x    frame=32284 fps=412 q=-0.0 size=N/A time=00:22:26.51 bitrate=N/A speed=17.2x    frame=32518 fps=412 q=-0.0 size=N/A time=00:22:36.27 bitrate=N/A speed=17.2x    frame=32783 fps=413 q=-0.0 size=N/A time=00:22:47.32 bitrate=N/A speed=17.2x    frame=33045 fps=413 q=-0.0 size=N/A time=00:22:58.25 bitrate=N/A speed=17.2x    frame=33283 fps=414 q=-0.0 size=N/A time=00:23:08.17 bitrate=N/A speed=17.2x    frame=33527 fps=414 q=-0.0 size=N/A time=00:23:18.35 bitrate=N/A speed=17.3x    frame=33776 fps=414 q=-0.0 size=N/A time=00:23:28.74 bitrate=N/A speed=17.3x    frame=34044 fps=415 q=-0.0 size=N/A time=00:23:39.91 bitrate=N/A speed=17.3x    frame=34287 fps=415 q=-0.0 size=N/A time=00:23:50.05 bitrate=N/A speed=17.3x    frame=34502 fps=415 q=-0.0 size=N/A time=00:23:59.06 bitrate=N/A speed=17.3x    [Parsed_psnr_10 @ 00000252c818cec0] PSNR y:46.776563 u:49.776169 v:48.962725 average:47.477509 min:37.687346 max:inf
[out#0/null @ 00000252c7f8fc40] video:14858KiB audio:270428KiB subtitle:0KiB other streams:0KiB global headers:0KiB muxing overhead: unknown
frame=34579 fps=416 q=-0.0 Lsize=N/A time=00:24:02.23 bitrate=N/A speed=17.3x    
